<svg width="1800" height="500" viewBox="0 0 1800 500" fill="none" xmlns="http://www.w3.org/2000/svg" role="img" aria-label="OpenCause Compute logo">
  <defs>
    <linearGradient id="g" x1="80" y1="80" x2="420" y2="420" gradientUnits="userSpaceOnUse">
      <stop offset="0" stop-color="#38BDF8"/>
      <stop offset="0.52" stop-color="#2DD4BF"/>
      <stop offset="1" stop-color="#22C55E"/>
    </linearGradient>
    <linearGradient id="t" x1="490" y1="250" x2="1080" y2="360" gradientUnits="userSpaceOnUse">
      <stop offset="0" stop-color="#0891B2"/>
      <stop offset="1" stop-color="#10B981"/>
    </linearGradient>
  </defs>

  <!-- Transparent background intentionally omitted -->

  <g transform="translate(62 38)">
    <path d="M312 110C359 158 375 230 351 292C326 354 267 396 201 396C112 396 40 324 40 236C40 169 82 109 144 85C191 67 243 72 284 97"
          stroke="url(#g)" stroke-width="22" stroke-linecap="round"/>
    <path d="M304 94L316 133L276 122" stroke="url(#g)" stroke-width="20" stroke-linecap="round" stroke-linejoin="round"/>

    <g stroke="#94A3B8" stroke-width="6" stroke-linecap="round" opacity="0.72">
      <path d="M200 119L299 176"/>
      <path d="M299 176V292"/>
      <path d="M299 292L200 349"/>
      <path d="M200 349L101 292"/>
      <path d="M101 292V176"/>
      <path d="M101 176L200 119"/>
      <path d="M101 176L299 292"/>
      <path d="M299 176L101 292"/>
      <path d="M200 119V349"/>
    </g>

    <circle cx="200" cy="235" r="58" fill="white" fill-opacity="0.88"/>
    <path d="M142 238H166L180 206L210 286L232 237H260"
          stroke="url(#g)" stroke-width="13" stroke-linecap="round" stroke-linejoin="round"/>

    <circle cx="200" cy="119" r="22" fill="#F8FAFC" stroke="#38BDF8" stroke-width="12"/>
    <circle cx="299" cy="176" r="22" fill="#F8FAFC" stroke="#2DD4BF" stroke-width="12"/>
    <circle cx="299" cy="292" r="22" fill="#F8FAFC" stroke="#22C55E" stroke-width="12"/>
    <circle cx="200" cy="349" r="22" fill="#F8FAFC" stroke="#2DD4BF" stroke-width="12"/>
    <circle cx="101" cy="292" r="22" fill="#F8FAFC" stroke="#38BDF8" stroke-width="12"/>
    <circle cx="101" cy="176" r="22" fill="#F8FAFC" stroke="#22C55E" stroke-width="12"/>
  </g>

  <g transform="translate(485 0)">
    <text x="0" y="232" font-family="Inter, ui-sans-serif, system-ui, -apple-system, BlinkMacSystemFont, Segoe UI, sans-serif"
          font-size="112" font-weight="800" letter-spacing="-4" fill="#0F172A">OpenCause</text>
    <text x="4" y="342" font-family="Inter, ui-sans-serif, system-ui, -apple-system, BlinkMacSystemFont, Segoe UI, sans-serif"
          font-size="96" font-weight="700" letter-spacing="-2" fill="url(#t)">Compute</text>
    <path d="M9 377H488" stroke="url(#t)" stroke-width="10" stroke-linecap="round" opacity="0.78"/>
  </g>
</svg>
